<svg class="header__logoBBC" id="Layer_1" data-name="Layer 1" xmlns="http://www.w3.org/2000/svg" xmlns:xlink="http://www.w3.org/1999/xlink" viewBox="0 0 2476 640"><defs><style>.cls-1,.cls-5,.cls-8{font-size:220px;}.cls-1,.cls-5,.cls-6,.cls-8{font-family:Quicksand-Bold, Quicksand;font-weight:700;}.cls-2{letter-spacing:-0.01em;}.cls-3{letter-spacing:0em;}.cls-4{fill:url(#linear-gradient);}.cls-5,.cls-6{fill:#fff;}.cls-6{font-size:50px;}.cls-7{fill:url(#linear-gradient-2);}.cls-8{letter-spacing:0em;}.cls-9{letter-spacing:0em;}.cls-10{fill:url(#linear-gradient-3);}</style><linearGradient id="linear-gradient" x1="1351.5" y1="639.5" x2="1052.5" y2="340.5" gradientUnits="userSpaceOnUse"><stop offset="0" stop-color="#0d483f"/><stop offset="0.36" stop-color="#0a513d"/><stop offset="0.95" stop-color="#016b38"/><stop offset="0.99" stop-color="#006d38"/></linearGradient><linearGradient id="linear-gradient-2" x1="521" y1="0.5" x2="820" y2="299.5" xlink:href="#linear-gradient"/><linearGradient id="linear-gradient-3" x1="1906.5" y1="299.5" x2="1607.5" y2="0.5" xlink:href="#linear-gradient"/></defs><text class="cls-1" transform="translate(1354.5 592.4)">ha<tspan class="cls-2" x="267.08" y="0">r</tspan><tspan x="359.92" y="0">ac</tspan><tspan class="cls-3" x="612.47" y="0">t</tspan><tspan x="701.35" y="0">ers</tspan></text><rect class="cls-4" x="1052.5" y="340.5" width="299" height="299"/><path d="M1351,341V639H1053V341h298m1-1H1052V640h300V340Z"/><text class="cls-5" transform="translate(1132.53 585.83)">C</text><text class="cls-6" transform="translate(1306.33 398.88) scale(0.93 1)">6</text><text class="cls-1" transform="translate(52 235.4)">The</text><rect class="cls-7" x="521" y="0.5" width="299" height="299"/><path d="M819.5,1V299h-298V1h298m1-1h-300V300h300V0Z"/><text class="cls-5" transform="translate(549.71 242.8)">Br</text><text class="cls-6" transform="translate(754.85 58.88)">35</text><text class="cls-8" transform="translate(822 246.4)">e<tspan class="cls-9" x="130.68" y="0">aking</tspan></text><text class="cls-1" transform="translate(1907.5 243.4)">d</text><rect class="cls-10" x="1607.5" y="0.5" width="299" height="299"/><path d="M1906,1V299H1608V1h298m1-1H1607V300h300V0Z"/><text class="cls-5" transform="translate(1615.37 245.83)">Ba</text><text class="cls-6" transform="translate(1840.55 58.88)">56</text></svg>